<?xml version="1.0" encoding="UTF-8"?>
<svg id="_レイヤー_2" data-name="レイヤー 2" xmlns="http://www.w3.org/2000/svg" viewBox="0 0 338.24 59.14">
  <defs>
    <style>
      .cls-1 {
        font-family: HiraMinPro-W6-83pv-RKSJ-H, 'Hiragino Mincho Pro';
        font-size: 24px;
      }

      .cls-2 {
        letter-spacing: -.05em;
      }

      .cls-3 {
        letter-spacing: -.08em;
      }

      .cls-4 {
        fill: #fff;
      }

      .cls-5 {
        letter-spacing: -.05em;
      }

      .cls-6 {
        letter-spacing: -.09em;
      }

      .cls-7 {
        letter-spacing: .31em;
      }

      .cls-8 {
        letter-spacing: .31em;
      }

      .cls-9 {
        letter-spacing: .06em;
      }

      .cls-10 {
        letter-spacing: -.05em;
      }

      .cls-11 {
        letter-spacing: -.01em;
      }
    </style>
  </defs>
  <g id="_作業" data-name="作業">
    <g>
      <polygon class="cls-4" points="337.83 58.2 329.97 58.82 322.82 58.64 315.68 58.81 308.53 56.13 301.39 59.06 294.25 57.69 287.1 56.23 279.96 58.67 272.81 56.19 265.67 59.14 258.52 58.97 251.38 57.41 244.23 56.03 237.09 57.76 229.94 57.59 222.8 56.42 215.65 58.79 208.5 57.49 201.36 58.29 194.22 58.24 187.08 56.75 179.93 58.8 172.79 57.43 165.65 58.28 158.5 58.09 151.36 57.34 144.21 57.04 137.07 58.6 129.92 56.22 122.78 58.68 115.63 58.76 108.49 56.19 101.34 57.58 94.19 58.37 87.04 58.55 79.89 56.71 72.75 56.78 65.6 55.85 58.45 57 51.3 58.74 44.15 58.59 37.01 58.32 29.86 57.26 22.71 56.14 15.56 55.93 8.4 59.03 .53 58.2 1.38 50.48 2.09 43.5 1.75 36.52 1.28 29.53 .5 22.55 .78 15.57 0 8.58 .13 .45 8.39 .81 15.53 .77 22.67 .1 29.82 .4 36.96 2.59 44.11 0 51.25 1.13 58.4 2.4 65.54 2.69 72.69 .76 79.83 .5 86.98 .45 94.12 2.23 101.27 2.36 108.41 1.07 115.56 1.39 122.7 1.03 129.85 1.81 136.99 2.34 144.13 2.85 151.27 2.94 158.42 .09 165.56 2.57 172.7 2.3 179.85 .11 186.99 2.79 194.14 2.36 201.28 .49 208.43 2.73 215.58 1.32 222.72 1.65 229.87 1.6 237.02 1.25 244.16 .25 251.31 .55 258.46 .95 265.61 1.66 272.76 3.26 279.9 2.53 287.05 2.8 294.2 .53 301.35 2.99 308.5 .31 315.64 1.92 322.8 .19 329.95 1.49 338.24 .42 336.88 8.57 337.48 15.55 336.17 22.53 335.54 29.51 335.53 36.49 336.57 43.48 336.44 50.51 337.83 58.2"/>
      <text class="cls-1" transform="translate(18.2 40.76)"><tspan class="cls-10" x="0" y="0">ミ</tspan><tspan class="cls-3" x="22.78" y="0">ー</tspan><tspan class="cls-2" x="44.78" y="0">ト</tspan><tspan class="cls-5" x="67.68" y="0">セ</tspan><tspan class="cls-6" x="90.55" y="0">ン</tspan><tspan class="cls-11" x="112.44" y="0">タ</tspan><tspan class="cls-8" x="136.13" y="0">ー(</tspan><tspan class="cls-9" x="182.69" y="0">製造場</tspan><tspan class="cls-7" x="259.01" y="0">所</tspan><tspan class="cls-9" x="290.45" y="0">)</tspan></text>
    </g>
  </g>
</svg>