<?xml version="1.0" encoding="UTF-8"?>
<svg id="_レイヤー_2" data-name="レイヤー 2" xmlns="http://www.w3.org/2000/svg" viewBox="0 0 177.57 57.56">
  <defs>
    <style>
      .cls-1 {
        fill: #fff;
      }
    </style>
  </defs>
  <g id="_作業" data-name="作業">
    <g>
      <path class="cls-1" d="M176.37,56.36c-.84,.86-.84,.46-2.05,.46s-1.2-.1-2.41-.1c-1.2,0-1.2,.54-2.41,.54s-1.2-.1-2.41-.1-1.2-1.03-2.41-1.03-1.2,.41-2.41,.41-1.2,.47-2.4,.47-1.2-.35-2.4-.35-1.2-.66-2.4-.66-1.2,.86-2.4,.86-1.2,.69-2.4,.69c-1.2,0-1.2-.61-2.4-.61-1.2,0-1.2-.74-2.41-.74s-1.2,.95-2.41,.95c-1.2,0-1.2-.53-2.41-.53s-1.2,.29-2.41,.29-1.2-.61-2.41-.61-1.2,0-2.41,0-1.2-.11-2.41-.11-1.2,1.11-2.41,1.11-1.2-1.15-2.41-1.15-1.2,.72-2.41,.72-1.2,.11-2.41,.11-1.2-1.08-2.41-1.08-1.2,.57-2.41,.57-1.21,.09-2.41,.09-1.2,.29-2.41,.29c-1.2,0-1.2-.13-2.41-.13s-1.2,.42-2.41,.42c-1.2,0-1.2-.15-2.41-.15s-1.2-.37-2.41-.37-1.2-.03-2.41-.03-1.2,.08-2.41,.08-1.21,.08-2.41,.08-1.2-.83-2.41-.83-1.2,.08-2.41,.08c-1.2,0-1.2,1.31-2.41,1.31-1.2,0-1.2-.36-2.41-.36s-1.21-.6-2.41-.6c-1.21,0-1.21,1.18-2.41,1.18s-1.2-.92-2.41-.92-1.2,.44-2.41,.44-1.2-.26-2.41-.26c-1.21,0-1.21-.25-2.41-.25s-1.2-.42-2.41-.42c-1.2,0-1.2,.44-2.41,.44s-1.21-.55-2.41-.55-1.21,.12-2.41,.12-1.2,1.36-2.41,1.36c-1.21,0-1.21-1.12-2.41-1.12-1.21,0-1.21-.12-2.41-.12s-1.2,.04-2.41,.04c-1.2,0-1.2,1.09-2.41,1.09s-1.2-1.36-2.41-1.36c-1.21,0-1.21,.81-2.41,.81s-1.21-.24-2.41-.24c-1.2,0-1.2,.55-2.41,.55-1.2,0-1.2-.8-2.41-.8s-1.21,1.11-2.41,1.11-1.2-.15-2.41-.15-1.21-.8-2.41-.8c-1.21,0-1.21,.4-2.41,.4-1.21,0-1.21,.06-2.41,.06s-1.21-.92-2.41-.92-1.21-.14-2.41-.14-1.21-.07-2.41-.07c-1.2,0-1.2,.89-2.41,.89s-1.21,.06-2.41,.06-1.21-.6-2.42-.6-1.21,1.07-2.42,1.07c-1.21,0-1.21-1.33-2.42-1.33-1.21,0-1.21,.4-2.42,.4s-2.07,1.73-2.92,.88,.06-1.72,.06-2.93,.17-1.21,.17-2.42,.08-1.21,.08-2.42c0-1.21,.98-1.21,.98-2.42s-.64-1.21-.64-2.43,.7-1.21,.7-2.43-.05-1.21-.05-2.43-1.49-1.21-1.49-2.43-.07-1.21-.07-2.43,.72-1.21,.72-2.43,.51-1.22,.51-2.43S.03,28.81,.03,27.59s.98-1.22,.98-2.43,.64-1.21,.64-2.43-.93-1.22-.93-2.43-.39-1.22-.39-2.43-.07-1.21-.07-2.43c0-1.21,.3-1.21,.3-2.43,0-1.22,.46-1.22,.46-2.43s-.41-1.22-.41-2.43,.85-1.22,.85-2.43S.09,4.49,.09,3.28-.3,1.39,.55,.53s1.52,.32,2.72,.32,1.2,.82,2.41,.82,1.2-.04,2.41-.04,1.2-.55,2.41-.55,1.2-.73,2.41-.73,1.2,1.21,2.41,1.21,1.2-1.16,2.4-1.16,1.2,.78,2.4,.78,1.2-.93,2.4-.93,1.2,.94,2.4,.94,1.2,.35,2.4,.35,1.2-.75,2.4-.75,1.2-.18,2.41-.18,1.2,1.1,2.41,1.1,1.2-.1,2.41-.1,1.2-1.23,2.41-1.23,1.2-.14,2.41-.14,1.2,.76,2.41,.76,1.2,.63,2.41,.63,1.2-.47,2.41-.47,1.2-.71,2.41-.71,1.2,1.07,2.41,1.07,1.2-.31,2.41-.31,1.2-1.11,2.41-1.11,1.2,.04,2.41,.04,1.21,1.02,2.41,1.02,1.2,.07,2.41,.07,1.2-.14,2.41-.14,1.2-.35,2.41-.35,1.2,.06,2.41,.06,1.2,.76,2.41,.76,1.2-1.48,2.41-1.48,1.2,1.5,2.41,1.5,1.21,.02,2.41,.02,1.2-1.32,2.41-1.32,1.2,.62,2.41,.62,1.2-.23,2.41-.23,1.2,.12,2.41,.12,1.21-.77,2.41-.77,1.21,1.59,2.41,1.59,1.2-1.01,2.41-1.01,1.2,.57,2.41,.57,1.2,.56,2.41,.56,1.21-.27,2.41-.27,1.2-.14,2.41-.14,1.2-.25,2.41-.25,1.21-.96,2.41-.96,1.21,1.51,2.41,1.51,1.2-.95,2.41-.95,1.21,.26,2.41,.26,1.21,.56,2.41,.56,1.2-1.17,2.41-1.17S127.28,0,128.48,0s1.2,.39,2.41,.39,1.21,.81,2.41,.81,1.21,.32,2.41,.32,1.2-.65,2.41-.65,1.2,.1,2.41,.1,1.21-.15,2.41-.15,1.2,0,2.41,0,1.21-.41,2.41-.41,1.21-.2,2.41-.2,1.21,.28,2.41,.28,1.21,.37,2.41,.37,1.21,.61,2.41,.61,1.21,.13,2.41,.13,1.2-.4,2.41-.4,1.21-.34,2.41-.34,1.21,.35,2.42,.35,1.21,.25,2.42,.25,1.21,.05,2.42,.05,1.21-1.2,2.42-1.2,1.91-.68,2.77,.18-.89,1.56-.89,2.77,.95,1.21,.95,2.42c0,1.21-1.1,1.21-1.1,2.42s1.04,1.21,1.04,2.42-.16,1.21-.16,2.43c0,1.21-1,1.21-1,2.43,0,1.21,1.33,1.21,1.33,2.43s.33,1.21,.33,2.43-1.44,1.21-1.44,2.43,.33,1.21,.33,2.43,.42,1.22,.42,2.43-.92,1.21-.92,2.43c0,1.22,1.2,1.22,1.2,2.43s.11,1.21,.11,2.43,.17,1.22,.17,2.43c0,1.22,.13,1.22,.13,2.43s-1.35,1.21-1.35,2.43c0,1.21,.27,1.21,.27,2.43,0,1.22-.12,1.22-.12,2.43,0,1.22-.01,1.22-.01,2.43s-.19,1.22-.19,2.43-.33,1.33-.17,2.54c.15,1.11,1.24,1.11,.39,1.98Z"/>
      <g>
        <path d="M42.27,35.67c0,.41-.17,.48-1.15,.53,.82,.29,1.75,.7,2.47,1.03,.26,.12,.41,.24,.41,.36,0,.22-.26,.31-1.01,.34-1.39,1.85-2.42,2.76-4.54,4.08l-.17-.19c1.03-1.46,1.7-2.69,2.3-4.27,.22-.55,.26-.77,.38-1.34-.12,.02-.24,.02-.29,.02-.79,0-.91-.05-.91-.48,.12-3.17,.12-3.86,.12-7.61,0-5.74,0-6.24-.12-7.94,1.22,.58,1.58,.77,2.66,1.46h2.52c.5-.6,.67-.79,1.22-1.37,.79,.58,1.03,.74,1.78,1.37,.19,.17,.26,.26,.26,.38,0,.17-.14,.31-.79,.65-.02,1.97-.02,2.98-.02,3.62,0,3.89,0,7.99,.02,9.14,0,.53-.24,.6-1.68,.6-.6,0-.7-.05-.7-.38v-.58h-2.78v.58Zm2.78-13.51h-2.78v3.65h2.78v-3.65Zm-2.78,4.15v3.79h2.78v-3.79h-2.78Zm0,4.3v3.98h2.78v-3.98h-2.78Zm1.99,5.69c2.23,.89,2.95,1.46,2.95,2.38,0,.82-.72,1.78-1.34,1.78-.29,0-.36-.14-.58-1.06-.29-1.34-.53-1.94-1.2-2.93l.17-.17Zm12.63-8.93c.62-.67,.82-.86,1.42-1.46,.89,.65,1.15,.84,1.97,1.51,.24,.19,.31,.31,.31,.43,0,.22-.26,.38-1.01,.67-.86,3.31-1.61,5.06-2.93,7.1,1.39,1.3,2.9,2.21,4.94,2.93l-.02,.31c-.82,.46-1.25,1.08-1.63,2.45-.05,.14-.1,.22-.22,.22-.17,0-.38-.12-.98-.53-1.25-.91-2.35-2.11-3.38-3.7-1.94,2.11-3.77,3.31-7.1,4.73l-.19-.31c3.22-2.33,4.92-4.06,6.22-6.29-.65-1.39-.84-1.99-1.1-3.22-.29-1.34-.53-2.95-.62-4.34h-.62c-.19,3.14-.46,4.85-1.03,6.86-.82,2.83-2.06,4.87-4.34,7.1l-.34-.19c1.32-2.16,1.94-3.65,2.42-5.88,.6-2.74,.86-6.36,.86-12.07,0-1.63-.02-2.14-.14-3.38,1.3,.65,1.68,.86,2.9,1.61h4.63c.77-.86,1.01-1.13,1.75-1.94,1.13,.89,1.49,1.15,2.54,2.11,.1,.07,.14,.14,.14,.22s-.1,.12-.26,.12h-9c-.02,2.21-.05,3.12-.12,4.94h4.94Zm-3.89,.5c.41,2.59,1.01,4.27,2.11,5.95,.82-1.75,1.15-2.88,1.85-5.95h-3.96Z"/>
        <path d="M82.42,29.04q.72-.72,1.32-1.32c1.13,.74,1.46,.98,2.54,1.78,.22,.19,.29,.26,.29,.38,0,.26-.31,.38-1.3,.46-1.44,1.1-2.04,1.46-3.86,2.45l-.22-.17c.72-1.27,.94-1.75,1.44-3.07h-14.88c.05,.26,.05,.38,.05,.58,0,1.97-1.01,3.55-2.23,3.55-.72,0-1.25-.74-1.25-1.75,0-.41,.1-.7,.29-.86,.07-.1,.17-.12,.6-.34,.55-.26,1.03-.72,1.39-1.32,.34-.55,.46-.91,.5-1.63h.29c.17,.6,.22,.79,.29,1.27h14.74Zm-18.07,12.6c2.26-1.03,3.5-1.94,4.58-3.31,.72-.94,1.15-1.94,1.42-3.43,.17-.84,.26-1.82,.26-2.69,0-.43,0-.7-.05-1.39,.82,.07,1.44,.14,1.85,.19,1.63,.17,1.97,.26,1.97,.55,0,.19-.24,.36-.96,.6-.14,2.3-.36,3.53-.89,4.66-.86,1.92-2.35,3.26-4.66,4.2-.98,.38-1.7,.6-3.43,.94l-.1-.31Zm17.02-18.84c.84-.91,1.1-1.2,1.94-2.06,1.2,.91,1.56,1.2,2.74,2.16,.1,.12,.14,.19,.14,.24,0,.1-.12,.17-.31,.17h-9.38v3.17h3.7c.65-.67,1.25-1.3,1.85-1.87,1.18,.84,1.54,1.1,2.66,1.99,.1,.1,.14,.17,.14,.24,0,.1-.1,.14-.29,.14h-16.2c-.55,0-1.06,.05-1.54,.14l-.17-.84c.6,.14,1.08,.19,1.73,.19h5.33v-3.17h-7.03c-.58,0-1.08,.05-1.54,.17l-.17-.86c.6,.14,1.1,.19,1.73,.19h7.01v-.5c0-1.01-.02-1.46-.14-2.47,3.82,.31,3.96,.34,3.96,.72,0,.22-.22,.34-1.03,.6v1.66h4.87Zm-5.21,10.66c0-1.03-.02-1.54-.1-2.59,3.53,.34,3.65,.36,3.65,.7,0,.19-.22,.34-.91,.58v6.19c0,.6,.05,.6,1.85,.6s2.14-.07,2.5-.53c.31-.38,.98-2.16,1.63-4.3l.31,.02-.22,3.89v.19c0,.24,.1,.34,.36,.41,.7,.19,.94,.48,.94,1.1,0,.74-.5,1.25-1.37,1.39-.74,.12-2.33,.17-4.82,.17-2.11,0-2.81-.07-3.26-.38-.41-.24-.53-.55-.58-1.25l.02-2.71v-3.48Z"/>
        <path d="M107.16,22.99c.77-.91,1.01-1.18,1.82-2.06,1.25,.91,1.61,1.2,2.78,2.18,.1,.1,.14,.17,.14,.22,0,.1-.12,.17-.26,.17h-17.14c-.02,5.64-.19,8.3-.65,10.58-.38,1.94-1.13,3.72-2.23,5.33-.55,.82-.96,1.27-1.9,2.21l-.22-.17c1.01-2.21,1.44-3.58,1.8-5.86,.36-2.11,.48-4.39,.48-8.74,0-2.16-.02-3.6-.12-5.52,1.39,.67,1.8,.89,3.07,1.66h5.38v-1.63c0-.67-.02-1.01-.1-1.73,.74,.07,1.32,.12,1.68,.14,1.51,.14,2.02,.29,2.02,.58,0,.22-.26,.36-.94,.58v2.06h4.37Zm-.5,5.45c.74-.89,.98-1.15,1.73-2.02,1.18,.91,1.54,1.2,2.66,2.14,.1,.12,.14,.19,.14,.24,0,.07-.12,.14-.24,.14h-7.66v4.39h3.24c.58-.65,.77-.84,1.37-1.46,.96,.62,1.22,.84,2.06,1.46,.22,.17,.31,.31,.31,.43,0,.19-.14,.29-.86,.65,0,3.72,0,4.03,.07,6.55,0,.17-.02,.26-.07,.34-.17,.22-.89,.34-1.87,.34-.62,0-.77-.1-.79-.48v-.91h-8.52v.91c-.02,.5-.36,.6-1.85,.6-.65,0-.84-.12-.84-.55,.07-1.9,.1-3.17,.1-5.95,0-1.58-.02-2.06-.1-3.38,1.3,.6,1.68,.79,2.88,1.46h2.23v-7.1c0-.84-.02-1.22-.14-2.06,.82,.07,1.44,.14,1.85,.17,1.42,.14,1.87,.26,1.87,.55,0,.19-.26,.36-.94,.6v2.95h3.36Zm-8.42,11.3h8.52v-5.9h-8.52v5.9Z"/>
        <path d="M129.75,23.47l-.02-1.32c0-1.15-.02-1.46-.12-2.26,.67,.07,1.2,.12,1.54,.14,1.22,.12,1.61,.24,1.61,.53,0,.17-.1,.24-.67,.53l-.02,2.38h2.57c.55-.6,.74-.79,1.34-1.37,.77,.65,.98,.84,1.73,1.56,.05,.05,.1,.12,.1,.14,0,.1-.12,.17-.29,.17h-5.45v2.64h1.8c.48-.55,.65-.72,1.18-1.27,.82,.55,1.06,.72,1.82,1.27,.17,.19,.24,.29,.24,.41,0,.17-.22,.38-.72,.72v8.33c0,1.9,0,2.21,.05,3.65,0,.98-.24,1.42-.94,1.75-.41,.19-1.15,.34-1.73,.34-.36,0-.43-.12-.46-.72-.02-.65-.26-1.22-.6-1.44-.17-.12-.29-.14-.62-.24l.02,1.61c0,.58-.24,.72-1.22,.72h-.5c-.53,0-.67-.12-.7-.58q.07-1.99,.1-6.17h-1.9v6.26c0,.6-.22,.72-1.32,.72-.89,0-1.06-.1-1.06-.55v-.14c.07-2.54,.17-8.21,.17-11.98,0-1.22-.05-2.33-.12-4.03,1.15,.55,1.51,.72,2.62,1.34h1.61l-.02-2.64h-4.15c0,.1,.02,.19,.02,.24,0,.82-.53,1.51-1.13,1.51-.24,0-.34-.07-.67-.67-.89-1.54-1.75-2.54-2.76-3.26-1.44,2.38-3.65,4.46-6.22,5.95l-.12-.17c1.25-1.39,1.94-2.38,2.71-3.96,.72-1.42,1.22-2.69,1.51-3.89,3.12,.72,3.38,.79,3.38,1.13,0,.22-.05,.24-.98,.46l-.1,.17c.86,.22,1.66,.46,2.45,.77,.96,.36,1.49,.74,1.75,1.22h4.3Zm-10.54,4.49h-1.56c-.38,0-.67,.02-1.22,.12l-.14-.82c.5,.1,1.13,.19,1.46,.19h1.46v-1.39c0-.34-.02-.43-.1-1.7,2.93,.31,3.31,.38,3.31,.72,0,.24-.17,.31-.94,.53v1.85h.72c.43-.6,.58-.77,1.03-1.34q.84,.72,1.78,1.51c.05,.07,.1,.14,.1,.19,0,.07-.12,.14-.24,.14h-3.38v3h.84q.6-.72,1.2-1.42c.77,.67,1.01,.89,1.75,1.61,.05,.07,.07,.12,.07,.17,0,.07-.12,.14-.24,.14h-8.38c-.41,0-.72,.02-1.37,.12l-.17-.86c.72,.17,1.22,.24,1.7,.24h2.3v-3Zm2.3,5.74c.53-.58,.7-.74,1.25-1.32,.77,.55,1.01,.72,1.73,1.32,.17,.14,.24,.24,.24,.38,0,.22-.07,.26-.72,.65,0,2.64,0,2.98,.05,6.12,0,.58-.29,.7-1.61,.7-.55,0-.72-.1-.72-.43v-1.06h-2.98v1.15c-.02,.58-.34,.72-1.58,.72-.65,0-.84-.12-.84-.53v-.12c.07-1.92,.1-3.43,.1-5.86,0-1.25-.02-1.68-.1-3.05,1.18,.53,1.51,.7,2.64,1.32h2.54Zm-2.76,5.86h2.98v-5.35h-2.98v5.35Zm11.04-9.1v-2.18s0-.53-.02-1.15h-1.9v3.34h1.92Zm-.02,4.03v-3.53h-1.9v3.53h1.9Zm2.23,.5v.38c0,1.58,.02,2.83,.05,3.82,.89,.07,1.42,.1,1.63,.12,.26-.02,.34-.07,.34-.31v-4.01h-2.02Zm2.02-7.87h-1.99v3.34h1.99v-3.34Zm-1.99,3.84v3.53h1.99v-3.53h-1.99Zm.96-10.8c1.92,.24,2.71,.62,2.71,1.3,0,.62-.6,1.3-1.15,1.3-.24,0-.38-.17-.58-.65-.34-.89-.55-1.2-1.08-1.78l.1-.17Z"/>
      </g>
    </g>
  </g>
</svg>