<?xml version="1.0" encoding="UTF-8"?>
<svg id="_レイヤー_2" data-name="レイヤー 2" xmlns="http://www.w3.org/2000/svg" viewBox="0 0 177.57 57.56">
  <defs>
    <style>
      .cls-1 {
        font-family: HiraMinPro-W6-83pv-RKSJ-H, 'Hiragino Mincho Pro';
        font-size: 24px;
        letter-spacing: .06em;
      }

      .cls-2 {
        fill: #fff;
      }
    </style>
  </defs>
  <g id="_作業" data-name="作業">
    <g>
      <path class="cls-2" d="M176.37,56.36c-.84,.86-.84,.46-2.05,.46s-1.2-.1-2.41-.1c-1.2,0-1.2,.54-2.41,.54s-1.2-.1-2.41-.1-1.2-1.03-2.41-1.03-1.2,.41-2.41,.41-1.2,.47-2.4,.47-1.2-.35-2.4-.35-1.2-.66-2.4-.66-1.2,.86-2.4,.86-1.2,.69-2.4,.69c-1.2,0-1.2-.61-2.4-.61-1.2,0-1.2-.74-2.41-.74s-1.2,.95-2.41,.95c-1.2,0-1.2-.53-2.41-.53s-1.2,.29-2.41,.29-1.2-.61-2.41-.61-1.2,0-2.41,0-1.2-.11-2.41-.11-1.2,1.11-2.41,1.11-1.2-1.15-2.41-1.15-1.2,.72-2.41,.72-1.2,.11-2.41,.11-1.2-1.08-2.41-1.08-1.2,.57-2.41,.57-1.21,.09-2.41,.09-1.2,.29-2.41,.29c-1.2,0-1.2-.13-2.41-.13s-1.2,.42-2.41,.42c-1.2,0-1.2-.15-2.41-.15s-1.2-.37-2.41-.37-1.2-.03-2.41-.03-1.2,.08-2.41,.08-1.21,.08-2.41,.08-1.2-.83-2.41-.83-1.2,.08-2.41,.08c-1.2,0-1.2,1.31-2.41,1.31-1.2,0-1.2-.36-2.41-.36s-1.21-.6-2.41-.6c-1.21,0-1.21,1.18-2.41,1.18s-1.2-.92-2.41-.92-1.2,.44-2.41,.44-1.2-.26-2.41-.26c-1.21,0-1.21-.25-2.41-.25s-1.2-.42-2.41-.42c-1.2,0-1.2,.44-2.41,.44s-1.21-.55-2.41-.55-1.21,.12-2.41,.12-1.2,1.36-2.41,1.36c-1.21,0-1.21-1.12-2.41-1.12-1.21,0-1.21-.12-2.41-.12s-1.2,.04-2.41,.04c-1.2,0-1.2,1.09-2.41,1.09s-1.2-1.36-2.41-1.36c-1.21,0-1.21,.81-2.41,.81s-1.21-.24-2.41-.24c-1.2,0-1.2,.55-2.41,.55-1.2,0-1.2-.8-2.41-.8s-1.21,1.11-2.41,1.11-1.2-.15-2.41-.15-1.21-.8-2.41-.8c-1.21,0-1.21,.4-2.41,.4-1.21,0-1.21,.06-2.41,.06s-1.21-.92-2.41-.92-1.21-.14-2.41-.14-1.21-.07-2.41-.07c-1.2,0-1.2,.89-2.41,.89s-1.21,.06-2.41,.06-1.21-.6-2.42-.6-1.21,1.07-2.42,1.07c-1.21,0-1.21-1.33-2.42-1.33-1.21,0-1.21,.4-2.42,.4s-2.07,1.73-2.92,.88,.06-1.72,.06-2.93,.17-1.21,.17-2.42,.08-1.21,.08-2.42c0-1.21,.98-1.21,.98-2.42s-.64-1.21-.64-2.43,.7-1.21,.7-2.43-.05-1.21-.05-2.43-1.49-1.21-1.49-2.43-.07-1.21-.07-2.43,.72-1.21,.72-2.43,.51-1.22,.51-2.43S.03,28.81,.03,27.59s.98-1.22,.98-2.43,.64-1.21,.64-2.43-.93-1.22-.93-2.43-.39-1.22-.39-2.43-.07-1.21-.07-2.43c0-1.21,.3-1.21,.3-2.43,0-1.22,.46-1.22,.46-2.43s-.41-1.22-.41-2.43,.85-1.22,.85-2.43S.09,4.49,.09,3.28-.3,1.39,.55,.53s1.52,.32,2.72,.32,1.2,.82,2.41,.82,1.2-.04,2.41-.04,1.2-.55,2.41-.55,1.2-.73,2.41-.73,1.2,1.21,2.41,1.21,1.2-1.16,2.4-1.16,1.2,.78,2.4,.78,1.2-.93,2.4-.93,1.2,.94,2.4,.94,1.2,.35,2.4,.35,1.2-.75,2.4-.75,1.2-.18,2.41-.18,1.2,1.1,2.41,1.1,1.2-.1,2.41-.1,1.2-1.23,2.41-1.23,1.2-.14,2.41-.14,1.2,.76,2.41,.76,1.2,.63,2.41,.63,1.2-.47,2.41-.47,1.2-.71,2.41-.71,1.2,1.07,2.41,1.07,1.2-.31,2.41-.31,1.2-1.11,2.41-1.11,1.2,.04,2.41,.04,1.21,1.02,2.41,1.02,1.2,.07,2.41,.07,1.2-.14,2.41-.14,1.2-.35,2.41-.35,1.2,.06,2.41,.06,1.2,.76,2.41,.76,1.2-1.48,2.41-1.48,1.2,1.5,2.41,1.5,1.21,.02,2.41,.02,1.2-1.32,2.41-1.32,1.2,.62,2.41,.62,1.2-.23,2.41-.23,1.2,.12,2.41,.12,1.21-.77,2.41-.77,1.21,1.59,2.41,1.59,1.2-1.01,2.41-1.01,1.2,.57,2.41,.57,1.2,.56,2.41,.56,1.21-.27,2.41-.27,1.2-.14,2.41-.14,1.2-.25,2.41-.25,1.21-.96,2.41-.96,1.21,1.51,2.41,1.51,1.2-.95,2.41-.95,1.21,.26,2.41,.26,1.21,.56,2.41,.56,1.2-1.17,2.41-1.17S127.28,0,128.48,0s1.2,.39,2.41,.39,1.21,.81,2.41,.81,1.21,.32,2.41,.32,1.2-.65,2.41-.65,1.2,.1,2.41,.1,1.21-.15,2.41-.15,1.2,0,2.41,0,1.21-.41,2.41-.41,1.21-.2,2.41-.2,1.21,.28,2.41,.28,1.21,.37,2.41,.37,1.21,.61,2.41,.61,1.21,.13,2.41,.13,1.2-.4,2.41-.4,1.21-.34,2.41-.34,1.21,.35,2.42,.35,1.21,.25,2.42,.25,1.21,.05,2.42,.05,1.21-1.2,2.42-1.2,1.91-.68,2.77,.18-.89,1.56-.89,2.77,.95,1.21,.95,2.42c0,1.21-1.1,1.21-1.1,2.42s1.04,1.21,1.04,2.42-.16,1.21-.16,2.43c0,1.21-1,1.21-1,2.43,0,1.21,1.33,1.21,1.33,2.43s.33,1.21,.33,2.43-1.44,1.21-1.44,2.43,.33,1.21,.33,2.43,.42,1.22,.42,2.43-.92,1.21-.92,2.43c0,1.22,1.2,1.22,1.2,2.43s.11,1.21,.11,2.43,.17,1.22,.17,2.43c0,1.22,.13,1.22,.13,2.43s-1.35,1.21-1.35,2.43c0,1.21,.27,1.21,.27,2.43,0,1.22-.12,1.22-.12,2.43,0,1.22-.01,1.22-.01,2.43s-.19,1.22-.19,2.43-.33,1.33-.17,2.54c.15,1.11,1.24,1.11,.39,1.98Z"/>
      <text class="cls-1" transform="translate(37.92 40.01)"><tspan x="0" y="0">販売店舗</tspan></text>
    </g>
  </g>
</svg>