<?xml version="1.0" encoding="UTF-8"?>
<svg id="_レイヤー_2" data-name="レイヤー 2" xmlns="http://www.w3.org/2000/svg" viewBox="0 0 338.24 59.14">
  <defs>
    <style>
      .cls-1 {
        fill: #fff;
      }
    </style>
  </defs>
  <g id="_作業" data-name="作業">
    <g>
      <polygon class="cls-1" points="337.83 58.2 329.97 58.82 322.82 58.64 315.68 58.81 308.53 56.13 301.39 59.06 294.25 57.69 287.1 56.23 279.96 58.67 272.81 56.19 265.67 59.14 258.52 58.97 251.38 57.41 244.23 56.03 237.09 57.76 229.94 57.59 222.8 56.42 215.65 58.79 208.5 57.49 201.36 58.29 194.22 58.24 187.08 56.75 179.93 58.8 172.79 57.43 165.65 58.28 158.5 58.09 151.36 57.34 144.21 57.04 137.07 58.6 129.92 56.22 122.78 58.68 115.63 58.76 108.49 56.19 101.34 57.58 94.19 58.37 87.04 58.55 79.89 56.71 72.75 56.78 65.6 55.85 58.45 57 51.3 58.74 44.15 58.59 37.01 58.32 29.86 57.26 22.71 56.14 15.56 55.93 8.4 59.03 .53 58.2 1.38 50.48 2.09 43.5 1.75 36.52 1.28 29.53 .5 22.55 .78 15.57 0 8.58 .13 .45 8.39 .81 15.53 .77 22.67 .1 29.82 .4 36.96 2.59 44.11 0 51.25 1.13 58.4 2.4 65.54 2.69 72.69 .76 79.83 .5 86.98 .45 94.12 2.23 101.27 2.36 108.41 1.07 115.56 1.39 122.7 1.03 129.85 1.81 136.99 2.34 144.13 2.85 151.27 2.94 158.42 .09 165.56 2.57 172.7 2.3 179.85 .11 186.99 2.79 194.14 2.36 201.28 .49 208.43 2.73 215.58 1.32 222.72 1.65 229.87 1.6 237.02 1.25 244.16 .25 251.31 .55 258.46 .95 265.61 1.66 272.76 3.26 279.9 2.53 287.05 2.8 294.2 .53 301.35 2.99 308.5 .31 315.64 1.92 322.8 .19 329.95 1.49 338.24 .42 336.88 8.57 337.48 15.55 336.17 22.53 335.54 29.51 335.53 36.49 336.57 43.48 336.44 50.51 337.83 58.2"/>
      <g>
        <path d="M23.92,33.97c.7,1.32,1.54,1.92,3.46,2.5,1.99,.58,5.02,1.13,6.29,1.13q.12,0,.5-.02h.12c.53,0,1.06,.31,1.68,1.01,.58,.65,.91,1.32,.91,1.82,0,.58-.36,.98-.89,.98-.31,0-.6-.07-1.46-.41-.43-.17-.48-.19-3.53-1.2-2.64-.86-4.27-1.56-5.14-2.16-1.15-.82-1.82-1.9-2.18-3.55l.24-.1Zm.84-12.22c1.01,.94,1.94,1.39,3.74,1.75,1.03,.24,2.42,.38,3.38,.38,.24,0,.46-.02,.65-.05,.19-.05,.29-.05,.43-.05,.34,0,.91,.34,1.42,.84,.55,.55,.79,.98,.79,1.42,0,.53-.36,.84-.96,.84-.91,0-3.29-.58-5.11-1.22-2.35-.86-3.58-1.87-4.58-3.77l.24-.14Zm.67,6c.53,.86,1.06,1.3,2.09,1.68,1.13,.43,2.76,.74,3.96,.74,.12,0,.31-.02,.48-.05,.19-.02,.22-.02,.31-.02,.38,0,.65,.14,1.1,.55,.65,.6,.98,1.15,.98,1.63,0,.5-.38,.84-.98,.84-.89,0-3.19-.6-4.61-1.22-1.9-.82-3.14-2.21-3.6-4.06l.26-.1Z"/>
        <path d="M44.49,30.05c.53,.38,1.08,.5,2.4,.5,.96,0,5.35-.07,9.5-.17,.41-.02,1.97-.02,2.69-.02,2.4,0,3.14,.1,3.53,.43,.19,.17,.29,.43,.29,.72,0,.6-.53,.98-1.56,1.13-1.34,.17-3.46,.24-10.71,.29-1.1,0-1.22,.02-2.98,.1-.58,.05-.7,.07-1.06,.22-.36,.14-.6,.19-.82,.19-.58,0-1.22-.53-1.78-1.49-.55-.96-.84-1.8-.84-2.5,0-.41,.02-.48,.29-.79,.5,.89,.65,1.1,1.03,1.39Z"/>
        <path d="M71.03,21.56c.72,0,1.78,.29,2.64,.7,1.06,.53,1.56,1.03,1.56,1.58,0,.22-.05,.34-.22,.65-.29,.53-.34,.72-.41,1.58-.05,.48-.1,2.04-.14,3.31,2.16,.1,4.39,.58,5.78,1.18,1.22,.55,1.75,1.27,1.75,2.35s-.43,1.7-1.06,1.7c-.36,0-.5-.1-1.13-.79-1.54-1.7-3.38-3.02-5.35-3.74v3.77q0,2.02,.07,4.87c.02,.41,.02,.74,.02,1.15,0,.79-.05,1.18-.14,1.44-.14,.38-.46,.6-.84,.6-.43,0-.86-.26-1.3-.84-.5-.62-.86-1.44-.86-1.94,0-.29,.02-.38,.22-.96,.41-1.18,.55-3.96,.55-10.1,0-3.46-.07-4.37-.43-5.02-.26-.5-.82-.94-1.66-1.25,.36-.19,.55-.24,.94-.24Z"/>
        <path d="M99.18,34.11c1.3-1.39,2.4-2.86,3.5-4.61,.26-.43,.46-.79,.46-.86s-.07-.14-.17-.14c-.6,0-4.94,1.54-6.89,2.45-.1,1.08-.14,2.42-.14,3.31,0,3.19,.41,3.72,2.95,3.72,1.75,0,3.29-.26,4.32-.74,.31-.14,.43-.17,.58-.17,.31,0,.84,.19,1.34,.5,.7,.41,1.08,.91,1.08,1.42s-.31,.82-.86,.94c-.82,.22-2.86,.36-4.73,.36-3.62,0-5.38-.7-6.05-2.45-.41-1.08-.58-2.66-.6-6.12-2.69,1.3-2.74,1.32-3.31,1.7-.36,.26-.58,.34-.84,.34-1.15,0-2.9-2.06-2.9-3.43,0-.07,.02-.19,.07-.38,.62,.89,1.32,1.32,2.11,1.32,.67,0,2.45-.48,4.82-1.27,0-2.98-.07-4.85-.22-5.52-.19-.77-.82-1.27-1.99-1.56,.34-.29,.6-.36,1.22-.36,.89,0,2.11,.34,3.12,.82,.72,.38,1.1,.82,1.1,1.27,0,.24-.02,.29-.29,.79-.36,.67-.53,1.58-.7,3.86,1.32-.41,3.94-1.27,4.87-1.61,1.25-.46,1.27-.48,1.78-.91,.29-.24,.53-.34,.79-.34,.55,0,1.46,.48,2.33,1.27,.7,.6,.98,1.03,.98,1.44,0,.38-.17,.58-.79,.84-.46,.22-.72,.38-1.34,.86-2.18,1.7-3.34,2.42-5.42,3.46l-.19-.19Z"/>
        <path d="M112.65,24.17c2.69,.43,4.13,.84,5.26,1.56,.79,.48,1.18,1.15,1.18,2.06,0,1.13-.55,1.99-1.3,1.99-.41,0-.65-.19-1.01-.82-1.15-2.09-2.38-3.38-4.25-4.54l.12-.26Zm18.24,1.39c-1.32,2.76-2.98,5.04-5.4,7.44-2.14,2.11-3.91,3.5-6.96,5.47-.62,.41-1.06,.74-1.3,1.06-.34,.41-.65,.6-1.01,.6-.62,0-1.51-.67-2.35-1.75-.77-.98-1.15-1.9-1.15-2.66,0-.22,.02-.34,.12-.65,.65,1.1,1.44,1.78,2.09,1.78,1.01,0,4.15-1.66,7.01-3.7,3.58-2.57,6.62-5.26,8.66-7.73l.29,.14Z"/>
        <path d="M133.89,41.96c2.06-1.18,3.22-1.94,4.7-3.17,1.73-1.39,3.05-2.66,4.13-3.98-.31-.12-.5-.34-.84-.91-.94-1.75-1.8-2.86-3.02-3.96-1.49,1.32-3.31,2.52-5.28,3.41l-.17-.26c2.28-1.92,4.44-4.34,6.22-7.06,1.01-1.51,1.37-2.28,1.37-2.81s-.55-1.18-1.44-1.58c.26-.1,.38-.12,.58-.12,.74,0,1.85,.41,2.86,1.06,.74,.48,1.06,.86,1.06,1.25,0,.31-.26,.72-1.18,1.82,.24,.02,.36,.02,.5,.02,.58,0,1.13-.07,2.86-.38,1.03-.17,1.34-.26,1.68-.46s.43-.22,.67-.22c.41,0,.86,.29,1.63,1.01,.6,.58,.96,1.13,.96,1.49,0,.26-.14,.48-.48,.72-.34,.26-.48,.43-1.03,1.39-2.42,4.13-5.57,7.63-8.95,9.89-2.18,1.46-4.37,2.47-6.7,3.12l-.12-.26Zm10.54-14.95c-.38,.14-.53,.17-.74,.17-.41,0-.89-.24-1.46-.77-1.15,1.44-1.92,2.26-2.9,3.07,1.37,.43,2.38,.94,3.34,1.66,.89,.67,1.27,1.3,1.27,2.02,0,.05,0,.14-.02,.26,1.49-1.78,3.38-5.02,4.22-7.13-1.06,.1-2.88,.46-3.7,.72Z"/>
        <path d="M157.84,30.05c.53,.38,1.08,.5,2.4,.5,.96,0,5.35-.07,9.5-.17,.41-.02,1.97-.02,2.69-.02,2.4,0,3.14,.1,3.53,.43,.19,.17,.29,.43,.29,.72,0,.6-.53,.98-1.56,1.13-1.34,.17-3.46,.24-10.71,.29-1.1,0-1.22,.02-2.98,.1-.58,.05-.7,.07-1.06,.22-.36,.14-.6,.19-.82,.19-.58,0-1.22-.53-1.78-1.49-.55-.96-.84-1.8-.84-2.5,0-.41,.02-.48,.29-.79,.5,.89,.65,1.1,1.03,1.39Z"/>
        <path d="M192.88,22.25c-.89,1.25-1.42,2.28-1.87,3.72-.65,2.11-.98,4.56-.98,7.44,0,3.17,.38,5.81,1.2,8.04,.41,1.13,.89,2.04,1.66,3.14l-.46,.38c-1.42-1.25-2.28-2.3-3.1-3.77-1.34-2.35-2.06-5.06-2.06-7.8,0-2.95,.82-5.86,2.38-8.33,.74-1.2,1.51-2.11,2.78-3.24l.46,.41Z"/>
        <path d="M219.73,34.42c.55-.67,.72-.84,1.2-1.37-.53,.22-1.3,.38-1.73,.38-.19,0-.26-.07-.29-.26-.14-1.18-.5-1.42-2.81-2.06v-.24c1.15,.07,1.49,.1,3.31,.12,.34-.02,.41-.12,.41-.48v-7.13c-.05-1.44-.07-2.26-.07-2.52,.74,.07,1.34,.14,1.7,.17,1.39,.12,1.87,.24,1.87,.48,0,.22-.22,.36-.98,.7l.05,9.1c-.07,.84-.24,1.08-1.08,1.56,1.06,.7,1.34,.89,2.45,1.68,.05,.07,.1,.14,.1,.17,0,.12-.12,.22-.24,.22h-9.77c.74,1.27,1.34,1.92,2.5,2.76,1.15-1.22,1.61-1.85,2.11-2.74q2.93,1.34,2.93,1.61c0,.17-.14,.26-.41,.26h-.14c-.07-.02-.17-.02-.24-.02h-.26c-1.3,.62-2.18,.96-3.29,1.32,1.68,.94,3.48,1.37,7.13,1.73v.26c-1.08,.38-1.61,.94-2.02,2.14-.05,.19-.14,.26-.29,.26-.22,0-1.06-.26-1.73-.53-2.33-.94-4.27-2.5-5.47-4.42-.48-.77-.79-1.42-1.3-2.64h-.19c-.91,.77-1.39,1.1-2.18,1.56v2.95c1.54-.12,2.76-.26,4.13-.5l.05,.36c-2.64,1.15-4.3,1.7-8.81,2.93-.12,.62-.26,.86-.48,.86-.29,0-.34-.19-1.01-3.29h.67c.65,0,1.7-.05,2.93-.12v-1.97c-1.51,.72-3.94,1.39-6.84,1.85l-.1-.24c2.23-.79,3.82-1.56,5.74-2.71,1.06-.65,1.8-1.18,2.33-1.68h-5.69c-.34,0-1.03,.07-1.51,.14l-.22-.86c.22,.05,.82,.12,1.73,.22h7.82v-.77c0-.17-.05-.82-.05-1.06-.12,0-.22,.02-.26,.02-.1,.02-.17,.02-.24,.02-.14,0-.17-.05-.19-.22-.02-.94-.24-1.27-.96-1.58v-.22c.36,.05,.38,.05,1.06,.07,.26-.02,.34-.1,.34-.41v-1.87h-1.7q.02,3.29,.05,4.42c-.02,.26-.12,.38-.34,.43-.29,.07-1.13,.17-1.56,.17-.34,0-.5-.12-.55-.43l.07-4.58h-1.68v4.03c-.05,.38-.29,.48-1.25,.53-.17,0-.34,.02-.5,.02h-.07c-.36,0-.48-.1-.53-.41,.05-1.78,.07-2.42,.07-3.41s0-1.37-.05-2.35c1.15,.43,1.51,.58,2.66,1.08h1.37v-1.68h-3.72c-.38,0-.98,.07-1.44,.17l-.22-.89c.48,.1,1.32,.22,1.63,.22h3.74v-1.82h-2.45c-.84,.82-1.08,1.03-1.78,1.56l-.26-.22c.7-1.54,1.1-2.93,1.27-4.27,2.83,.77,2.88,.77,2.88,1.03,0,.19-.24,.31-.77,.38-.29,.38-.38,.5-.84,1.01h1.94q0-1.99-.1-2.69c.62,.05,1.1,.12,1.42,.14,1.49,.12,1.87,.24,1.87,.48,0,.19-.19,.31-.89,.62v1.44h1.22c.53-.62,.7-.82,1.25-1.46,.89,.67,1.15,.91,2.02,1.68,.05,.05,.07,.1,.07,.12,0,.1-.12,.17-.31,.17h-4.25v1.82h1.75c.53-.6,.7-.77,1.27-1.37,.84,.65,1.1,.86,1.92,1.61,.05,.05,.07,.1,.07,.12,0,.07-.1,.14-.24,.14h-4.78v1.68h1.63c.41-.46,.55-.6,.98-1.08,.77,.5,1.01,.65,1.75,1.15,.14,.12,.19,.19,.19,.29,0,.22-.12,.34-.6,.6q0,.46,.02,1.32v.98c-.12,.74-.31,.94-1.3,1.25,.84,.07,2.35,.24,2.52,.29,.19,.02,.31,.12,.31,.24,0,.22-.24,.36-.96,.58v.89h5.45Zm-1.13-12.03c0,.19-.22,.36-.89,.62,0,1.66,.02,3.91,.05,6.48-.02,.26-.07,.34-.31,.41-.29,.07-1.27,.17-1.73,.17-.31,0-.41-.1-.41-.38,.07-1.46,.07-1.7,.07-4.18,0-1.94-.02-2.95-.1-3.77,3,.31,3.31,.38,3.31,.65Z"/>
        <path d="M226.96,30.34c.67,.1,1.25,.17,1.63,.17h1.54c.53-.62,.72-.82,1.27-1.44,.94,.62,1.22,.84,2.11,1.51,.12,.12,.17,.22,.17,.31,0,.22-.1,.29-.89,.72v5.78c.62,.91,1.1,1.37,1.68,1.63,1.01,.46,2.74,.65,5.9,.65,2.28,0,6.1-.19,9.48-.46v.26c-.94,.58-1.3,1.08-1.54,2.23-.05,.22-.12,.26-.38,.29-.31,.02-4.13,.12-5.14,.12-5.11,0-6.86-.26-8.18-1.22-1.03-.72-1.58-1.54-2.4-3.5-.82,1.37-1.42,2.16-3.1,4.1v.14c0,.07,0,.14,.02,.29v.19c0,.31-.12,.48-.31,.48-.12,0-.26-.1-.36-.29-.26-.43-.55-1.01-.84-1.68-.14-.31-.36-.79-.67-1.42,.98-.31,2.14-.86,3.24-1.58v-6.62h-1.61c-.34,0-.98,.07-1.42,.14l-.22-.82Zm1.15-9.36c3.5,1.34,4.9,2.4,4.9,3.74,0,1.06-.96,2.28-1.8,2.28-.38,0-.58-.24-.79-.98-.7-2.35-1.25-3.41-2.5-4.85l.19-.19Zm11.93,3.77v-2.11c0-.82-.02-1.25-.1-2.06,3.22,.34,3.6,.43,3.6,.77,0,.22-.22,.36-.94,.62v2.78h1.94c.67-.84,.89-1.08,1.61-1.9,1.13,.84,1.46,1.13,2.54,2.06,.07,.07,.12,.14,.12,.17,0,.1-.12,.17-.26,.17h-5.95v3.84h2.74c.72-.89,.96-1.15,1.75-1.97,1.18,.91,1.51,1.2,2.62,2.18,.07,.05,.1,.1,.1,.14,0,.1-.12,.14-.31,.14h-14.88c-.38,0-1.01,.05-1.32,.12l-.19-.79c.55,.1,1.1,.17,1.51,.17h5.42v-3.84h-2.81c-.96,1.34-1.82,2.28-3.22,3.38l-.22-.17c.82-1.54,1.42-3.07,1.97-5.06,.22-.79,.34-1.34,.43-2.3,2.71,.7,3,.79,3.31,1.01,.14,.1,.22,.17,.22,.26,0,.24-.17,.31-1.1,.5-.5,.98-.67,1.27-1.06,1.87h2.47Zm4.34,7.13c.53-.55,.7-.72,1.3-1.27,.89,.55,1.15,.72,1.99,1.32,.17,.1,.24,.19,.24,.29,0,.14-.17,.34-.74,.74v1.22c0,1.2,.02,2.5,.05,3.98-.02,.29-.12,.38-.43,.46-.24,.05-1.15,.12-1.61,.12-.41,0-.55-.1-.6-.43v-1.01h-6.41v1.01c-.05,.43-.36,.53-1.51,.53-.96,0-1.08-.05-1.13-.43,.07-1.44,.1-2.74,.1-4.75,0-1.63-.02-2.21-.1-3.12,1.27,.55,1.66,.74,2.86,1.34h6Zm-6.22,4.92h6.41v-4.42h-6.41v4.42Z"/>
        <path d="M258.11,27.46c.5-.7,.67-.91,1.18-1.58,.79,.74,1.03,.96,1.73,1.75,.05,.07,.1,.17,.1,.22,0,.07-.1,.12-.26,.12h-3.22v5.98c.96-.34,1.44-.53,2.74-1.08l.12,.26c-2.14,1.9-2.16,1.92-6.19,4.66-.05,.82-.14,1.08-.38,1.08s-.29-.14-1.46-3.48c.96-.14,1.13-.19,2.64-.62v-6.79h-1.2c-.6,0-.96,.05-1.39,.14l-.12-.84c.48,.14,.89,.19,1.51,.19h1.2v-4.01c0-1.1-.02-1.54-.1-2.5,3.5,.34,3.62,.36,3.62,.7,0,.22-.26,.38-.98,.6v5.21h.48Zm8.95,6.38c-.91,1.44-1.46,2.11-2.45,3-1.63,1.49-3.14,2.28-6.38,3.41l-.12-.31c2.16-1.25,3.36-2.18,4.63-3.62,.74-.84,1.15-1.42,1.7-2.47h-1.1c-1.7,1.63-3.43,2.76-5.78,3.74l-.17-.24c2.52-1.97,3.89-3.62,5.09-6.12h-1.75c-.67,0-.96,.02-1.49,.14l-.14-.84c.53,.14,.96,.19,1.63,.19h10.27c.72-.79,.94-1.01,1.68-1.75,1.06,.77,1.37,1.03,2.38,1.87,.1,.12,.14,.19,.14,.24,0,.1-.12,.14-.31,.14h-9.41c-.72,1.06-.98,1.39-1.66,2.11h7.42c.53-.58,.7-.74,1.25-1.3,.84,.6,1.08,.77,1.82,1.37,.19,.14,.26,.24,.26,.36,0,.19-.22,.36-.74,.58-.38,4.32-.79,6.34-1.42,7.18-.41,.55-1.03,.89-1.94,1.08-.31,.05-.7,.1-.91,.1-.31,0-.38-.07-.38-.38-.05-.55-.26-.96-.7-1.3-.31-.22-.53-.31-2.02-.84l.05-.29c1.44,.12,2.4,.19,2.93,.19,.72,0,.96-.14,1.15-.7,.29-.82,.62-3.19,.79-5.54h-.46c-1.08,2.14-1.8,3.17-3.07,4.39-1.99,1.94-4.15,3.12-7.87,4.25l-.17-.26c3-1.63,4.68-2.88,6.22-4.73,.84-1.03,1.8-2.5,2.35-3.65h-1.32Zm-3.07-4.7c0,.5-.26,.6-1.61,.6-.82,0-.94-.07-.94-.53,.05-1.58,.07-2.26,.07-4.27,0-2.83-.02-3.14-.07-4.32,1.22,.53,1.61,.7,2.78,1.34h5.09c.55-.58,.72-.74,1.3-1.3,.86,.55,1.1,.74,1.9,1.32,.22,.14,.31,.26,.31,.36,0,.22-.19,.36-.79,.65v1.42c0,1.06,0,2.64,.05,4.49-.02,.24-.05,.34-.17,.43-.17,.12-.82,.19-1.63,.19-.65,0-.77-.05-.77-.38v-.5h-5.52v.5Zm5.52-6.67h-5.52v2.52h5.52v-2.52Zm-5.52,3.02v2.64h5.52v-2.64h-5.52Z"/>
        <path d="M282.09,33.1c-.12,1.44-.36,2.71-.72,3.86-.7,2.09-1.61,3.5-3.53,5.45l-.22-.19c1.06-2.23,1.46-3.58,1.75-5.83,.22-1.7,.31-3.96,.31-7.01,0-1.75-.02-2.81-.1-4.51,1.27,.65,1.66,.86,2.9,1.56h2.76c.5-.65,.67-.84,1.22-1.46,.86,.6,1.13,.79,1.92,1.39,.19,.17,.26,.26,.26,.38,0,.19-.14,.31-.72,.62v1.08c0,1.46,.02,3.41,.1,5.59,0,.22-.05,.34-.17,.43-.24,.17-.82,.26-1.54,.26-.67,0-.82-.1-.84-.53v-1.1h-3.41Zm-3.7-10.82c.62,.14,1.1,.19,1.82,.19h5.14c.7-.84,.91-1.08,1.61-1.9,1.08,.82,1.39,1.08,2.4,2.02,.07,.12,.12,.17,.12,.22,0,.1-.1,.17-.26,.17h-9c-.7,0-1.18,.05-1.68,.14l-.14-.84Zm7.1,4.66h-3.22c-.02,2.86-.07,4.2-.17,5.66h3.38v-5.66Zm6.79,2.4c-.02,.6-.07,1.32-.14,2.14-.26,2.74-.67,4.22-1.56,5.78-1.15,2.04-2.76,3.43-5.83,5.11l-.17-.26c2.16-1.94,3.24-3.43,4.03-5.47,.91-2.35,1.15-4.7,1.15-11.16,0-1.54-.02-2.04-.1-3.26,1.27,.62,1.63,.84,2.83,1.61,1.25-.6,2.21-1.15,3.24-1.9,.74-.53,1.03-.79,1.63-1.46,2.57,1.75,2.93,2.02,2.93,2.3,0,.14-.17,.26-.38,.26-.26,0-.55-.02-.86-.1-2.33,.77-4.27,1.22-6.7,1.58,0,1.82-.02,2.47-.07,4.32h4.54l1.68-1.87c1.08,.86,1.39,1.13,2.35,2.04,.1,.1,.12,.14,.12,.19,0,.1-.1,.14-.29,.14h-3.36v5.83c0,2.04,.02,4.06,.1,6.36,0,.34-.1,.48-.36,.58-.19,.07-1.13,.17-1.68,.17-.48,0-.67-.14-.7-.53q.05-1.2,.1-6.29v-6.12h-2.5Z"/>
        <path d="M309.23,44.6c1.99-2.76,2.86-6.19,2.86-11.19s-.86-8.4-2.86-11.16l.46-.41c1.42,1.25,2.28,2.3,3.12,3.77,1.34,2.38,2.04,5.04,2.04,7.8,0,2.98-.82,5.86-2.35,8.33-.77,1.22-1.56,2.14-2.81,3.24l-.46-.38Z"/>
      </g>
    </g>
  </g>
</svg>